{"title":"13 Tzameti.avi","uid":4599109,"size":727767120,"categoryP":"video","categoryS":"movies","magnet":"?xt=urn:btih:28bc25ea864bedf247735ede8652796a64dce0f1&amp;dn=13+Tzameti.avi&amp;tr=udp%3A%2F%2Ftracker.openbittorrent.com%3A80&amp;tr=udp%3A%2F%2Fopen.demonii.com%3A1337&amp;tr=udp%3A%2F%2Ftracker.coppersurfer.tk%3A6969&amp;tr=udp%3A%2F%2Fexodus.desync.com%3A6969","seeders":4,"leechers":0,"uploader":"stingolo","files":1,"time":1230125401,"description":"13 Tzameti, [Divx - Fra Mp3 - HardSub Ita][www.tntvillage.scambioetico.org]\n\nScheda del film\n\nTitolo:13 Tzameti\nTitolo originale:Tzameti\nNazionalitÃƒÂ :Francia, Georgia\nAnno:2005\nGenere:Thriller\nRegia:Gela Babluani\nProduzione:Les films de la Strada\nDistribuzione:Teodora Film\nData di uscita:Venezia 2005, 30 Giugno 2006 (cinema)\n\nCast\n\nGeorge Babluani, Philippe Passon, Pascal Bongard, Vania Villers, Fred Ulysse, AurÃƒÂ©lien Recoing, Augustin Lengrand\n\nScheda tecnica (Mediainfo)\n\nGeneral\nComplete name                    : 13 Tzameti.avi\nFormat                           : AVI\nFormat/Info                      : Audio Video Interleave\nFile size                        : 694 MiB\nDuration                         : 1h 29mn\nOverall bit rate                 : 1 089 Kbps\n\nVideo\nFormat                           : MPEG-4 Visual\nFormat settings, BVOP            : Yes\nFormat settings, QPel            : No\nFormat settings, GMC             : No warppoints\nFormat settings, Matrix          : Default\nCodec ID                         : DX50\nCodec ID/Hint                    : DivX 5\nDuration                         : 1h 29mn\nBit rate                         : 947 Kbps\nWidth                            : 608 pixels\nHeight                           : 256 pixels\nDisplay aspect ratio             : 2.35\nFrame rate                       : 25.000 fps\nResolution                       : 24 bits\nScan type                        : Progressive\nBits/(Pixel*Frame)               : 0.243\nStream size                      : 604 MiB (87%)\nWriting library                  : DivX 5.0.2 (UTC 2002-05-16)\n\nAudio\nFormat                           : MPEG Audio\nFormat version                   : Version 1\nFormat profile                   : Layer 3\nCodec ID                         : 55\nCodec ID/Hint                    : MP3\nDuration                         : 1h 29mn\nBit rate mode                    : Variable\nBit rate                         : 129 Kbps\nMinimum bit rate                 : 128 Kbps\nChannel(s)                       : 2 channels\nSampling rate                    : 48.0 KHz\nResolution                       : 16 bits\nStream size                      : 82.1 MiB (12%)\nAlignment                        : Aligned on interleaves\nInterleave, duration             : 24 ms (0.60 video frame)\nInterleave, preload duration     : 494 ms\nWriting library                  : LAME3.97b\nEncoding settings                : VBR (rh)\nLanguage                         : Undefined\n\n","torrent":{"xt":"urn:btih:28bc25ea864bedf247735ede8652796a64dce0f1","amp;dn":"13+Tzameti.avi","amp;tr":["udp%3A%2F%2Ftracker.openbittorrent.com%3A80","udp%3A%2F%2Fopen.demonii.com%3A1337","udp%3A%2F%2Ftracker.coppersurfer.tk%3A6969","udp%3A%2F%2Fexodus.desync.com%3A6969"],"infoHash":"28bc25ea864bedf247735ede8652796a64dce0f1","infoHashBuffer":{"type":"Buffer","data":[40,188,37,234,134,75,237,242,71,115,94,222,134,82,121,106,100,220,224,241]},"announce":[],"urlList":[]}}